<svg xmlns="http://www.w3.org/2000/svg" xmlns:xlink="http://www.w3.org/1999/xlink" width="1300" height="798.14"><rect width="1300" height="798.14" rx="5" ry="5" class="a"/><svg y="0%" x="0%"><circle cx="20" cy="20" r="6" fill="#ff5f58"/><circle cx="40" cy="20" r="6" fill="#ffbd2e"/><circle cx="60" cy="20" r="6" fill="#18c132"/></svg><svg height="738.14" viewBox="0 0 126 73.814" width="1260" x="15" xmlns="http://www.w3.org/2000/svg" xmlns:xlink="http://www.w3.org/1999/xlink" y="50"><style>@keyframes i{0%{transform:translateX(0)}1.47%{transform:translateX(-126px)}11.36%{transform:translateX(-252px)}11.92%{transform:translateX(-378px)}12.78%{transform:translateX(-504px)}13.33%{transform:translateX(-630px)}14.52%{transform:translateX(-756px)}14.91%{transform:translateX(-882px)}15.54%{transform:translateX(-1008px)}16.25%{transform:translateX(-1134px)}17.75%{transform:translateX(-1260px)}18.14%{transform:translateX(-1386px)}18.62%{transform:translateX(-1512px)}19.01%{transform:translateX(-1638px)}19.88%{transform:translateX(-1764px)}20.35%{transform:translateX(-1890px)}21.14%{transform:translateX(-2016px)}21.85%{transform:translateX(-2142px)}22.32%{transform:translateX(-2268px)}22.63%{transform:translateX(-2394px)}23.19%{transform:translateX(-2520px)}24.13%{transform:translateX(-2646px)}24.6%{transform:translateX(-2772px)}25.24%{transform:translateX(-2898px)}25.55%{transform:translateX(-3024px)}26.1%{transform:translateX(-3150px)}26.34%{transform:translateX(-3276px)}26.89%{transform:translateX(-3402px)}27.28%{transform:translateX(-3528px)}28.31%{transform:translateX(-3654px)}29.32%{transform:translateX(-3780px)}29.46%{transform:translateX(-3906px)}41.77%{transform:translateX(-4032px)}53.83%{transform:translateX(-4158px)}64.92%{transform:translateX(-4284px)}69.04%{transform:translateX(-4410px)}69.75%{transform:translateX(-4536px)}78.73%{transform:translateX(-4662px)}81.24%{transform:translateX(-4788px)}81.38%{transform:translateX(-4914px)}93.69%{transform:translateX(-5040px)}94.64%{transform:translateX(-5166px)}95.35%{transform:translateX(-5292px)}95.9%{transform:translateX(-5418px)}97.79%{transform:translateX(-5544px)}98.42%{transform:translateX(-5670px)}99.05%{transform:translateX(-5796px)}99.29%{transform:translateX(-5922px)}to{transform:translateX(-6174px)}}.a{fill:#282d35}.f{fill:#b9c0cb;white-space:pre}</style><g font-family="Monaco,Consolas,Menlo,'Bitstream Vera Sans Mono','Powerline Symbols',monospace" font-size="1.67"><defs><symbol id="1"><text y="1.67" class="f">~</text><text x="2.004" y="1.67" class="f">$</text></symbol><symbol id="2"><text y="1.67" class="f">~</text><text x="2.004" y="1.67" class="f">$</text><text x="4.008" y="1.67" class="f">aws</text></symbol><symbol id="3"><text y="1.67" class="f">~</text><text x="2.004" y="1.67" class="f">$</text><text x="4.008" y="1.67" class="f">aws</text><text x="8.016" y="1.67" class="f">sts</text></symbol><symbol id="4"><text y="1.67" class="f">~</text><text x="2.004" y="1.67" class="f">$</text><text x="4.008" y="1.67" class="f">aws</text><text x="8.016" y="1.67" class="f">sts</text><text x="12.024" y="1.67" class="f">get-caller-identity</text></symbol><symbol id="5"><text y="1.67" class="f">Unable</text><text x="7.014" y="1.67" class="f">to</text><text x="10.02" y="1.67" class="f">locate</text><text x="17.034" y="1.67" class="f">credentials.</text><text x="30.06" y="1.67" class="f">You</text><text x="34.068" y="1.67" class="f">can</text><text x="38.076" y="1.67" class="f">configure</text><text x="48.096" y="1.67" class="f">credentials</text><text x="60.12" y="1.67" class="f">by</text><text x="63.126" y="1.67" class="f">running</text><text x="71.142" y="1.67" class="f">&quot;aws</text><text x="76.152" y="1.67" class="f">configure&quot;.</text></symbol><symbol id="6"><text y="1.67" class="f">~</text><text x="2.004" y="1.67" class="f">$</text><text x="4.008" y="1.67" class="f">eval</text><text x="9.018" y="1.67" class="f">$(weep</text><text x="16.032" y="1.67" class="f">export</text><text x="23.046" y="1.67" class="f">arn:aws:iam::985081345396:role/wired-raccoon)</text></symbol><symbol id="7"><text y="1.67" class="f">{</text></symbol><symbol id="8"><text x="4.008" y="1.67" class="f">&quot;UserId&quot;:</text><text x="14.028" y="1.67" class="f">&quot;AROA6KW3MOV2NGHGWKAVC:ccastrapel@example.com&quot;,</text></symbol><symbol id="9"><text x="4.008" y="1.67" class="f">&quot;Account&quot;:</text><text x="15.03" y="1.67" class="f">&quot;985081345396&quot;,</text></symbol><symbol id="10"><text x="4.008" y="1.67" class="f">&quot;Arn&quot;:</text><text x="11.022" y="1.67" class="f">&quot;arn:aws:sts::985081345396:assumed-role/wired-raccoon/ccastrapel@example.com&quot;</text></symbol><symbol id="11"><text y="1.67" class="f">}</text></symbol><symbol id="12"><text y="1.67" class="f">~</text><text x="2.004" y="1.67" class="f">$</text><text x="4.008" y="1.67" class="f">ex</text></symbol><symbol id="13"><text y="1.67" class="f">~</text><text x="2.004" y="1.67" class="f">$</text><text x="4.008" y="1.67" class="f">exo</text></symbol><symbol id="14"><text y="1.67" class="f">~</text><text x="2.004" y="1.67" class="f">$</text><text x="4.008" y="1.67" class="f">exit</text></symbol><symbol id="a"><path fill="transparent" d="M0 0h126v34H0z"/></symbol><symbol id="b"><path fill="#6f7683" d="M0 0h1.102v2.171H0z"/></symbol></defs><path class="a" d="M0 0h126v73.814H0z"/><g style="animation-duration:20.30298s;animation-iteration-count:infinite;animation-name:i;animation-timing-function:steps(1,end)"><svg width="6300"><svg><use xlink:href="#a"/><use xlink:href="#b" x="-.004"/></svg><svg x="126"><use xlink:href="#a"/><use xlink:href="#b" x="3.996"/><use xlink:href="#1"/></svg><svg x="252"><use xlink:href="#a"/><use xlink:href="#b" x="4.996"/><text y="1.67" class="f">~</text><text x="2.004" y="1.67" class="f">$</text><text x="4.008" y="1.67" class="f">a</text></svg><svg x="378"><use xlink:href="#a"/><use xlink:href="#b" x="5.996"/><text y="1.67" class="f">~</text><text x="2.004" y="1.67" class="f">$</text><text x="4.008" y="1.67" class="f">aw</text></svg><svg x="504"><use xlink:href="#a"/><use xlink:href="#b" x="6.996"/><use xlink:href="#2"/></svg><svg x="630"><use xlink:href="#a"/><use xlink:href="#b" x="7.996"/><use xlink:href="#2"/></svg><svg x="756"><use xlink:href="#a"/><use xlink:href="#b" x="8.996"/><text y="1.67" class="f">~</text><text x="2.004" y="1.67" class="f">$</text><text x="4.008" y="1.67" class="f">aws</text><text x="8.016" y="1.67" class="f">s</text></svg><svg x="882"><use xlink:href="#a"/><use xlink:href="#b" x="9.996"/><text y="1.67" class="f">~</text><text x="2.004" y="1.67" class="f">$</text><text x="4.008" y="1.67" class="f">aws</text><text x="8.016" y="1.67" class="f">st</text></svg><svg x="1008"><use xlink:href="#a"/><use xlink:href="#b" x="10.996"/><use xlink:href="#3"/></svg><svg x="1134"><use xlink:href="#a"/><use xlink:href="#b" x="11.996"/><use xlink:href="#3"/></svg><svg x="1260"><use xlink:href="#a"/><use xlink:href="#b" x="12.996"/><text y="1.67" class="f">~</text><text x="2.004" y="1.67" class="f">$</text><text x="4.008" y="1.67" class="f">aws</text><text x="8.016" y="1.67" class="f">sts</text><text x="12.024" y="1.67" class="f">g</text></svg><svg x="1386"><use xlink:href="#a"/><use xlink:href="#b" x="13.996"/><text y="1.67" class="f">~</text><text x="2.004" y="1.67" class="f">$</text><text x="4.008" y="1.67" class="f">aws</text><text x="8.016" y="1.67" class="f">sts</text><text x="12.024" y="1.67" class="f">ge</text></svg><svg x="1512"><use xlink:href="#a"/><use xlink:href="#b" x="14.996"/><text y="1.67" class="f">~</text><text x="2.004" y="1.67" class="f">$</text><text x="4.008" y="1.67" class="f">aws</text><text x="8.016" y="1.67" class="f">sts</text><text x="12.024" y="1.67" class="f">get</text></svg><svg x="1638"><use xlink:href="#a"/><use xlink:href="#b" x="15.996"/><text y="1.67" class="f">~</text><text x="2.004" y="1.67" class="f">$</text><text x="4.008" y="1.67" class="f">aws</text><text x="8.016" y="1.67" class="f">sts</text><text x="12.024" y="1.67" class="f">get-</text></svg><svg x="1764"><use xlink:href="#a"/><use xlink:href="#b" x="16.996"/><text y="1.67" class="f">~</text><text x="2.004" y="1.67" class="f">$</text><text x="4.008" y="1.67" class="f">aws</text><text x="8.016" y="1.67" class="f">sts</text><text x="12.024" y="1.67" class="f">get-c</text></svg><svg x="1890"><use xlink:href="#a"/><use xlink:href="#b" x="17.996"/><text y="1.67" class="f">~</text><text x="2.004" y="1.67" class="f">$</text><text x="4.008" y="1.67" class="f">aws</text><text x="8.016" y="1.67" class="f">sts</text><text x="12.024" y="1.67" class="f">get-ca</text></svg><svg x="2016"><use xlink:href="#a"/><use xlink:href="#b" x="18.996"/><text y="1.67" class="f">~</text><text x="2.004" y="1.67" class="f">$</text><text x="4.008" y="1.67" class="f">aws</text><text x="8.016" y="1.67" class="f">sts</text><text x="12.024" y="1.67" class="f">get-cal</text></svg><svg x="2142"><use xlink:href="#a"/><use xlink:href="#b" x="19.996"/><text y="1.67" class="f">~</text><text x="2.004" y="1.67" class="f">$</text><text x="4.008" y="1.67" class="f">aws</text><text x="8.016" y="1.67" class="f">sts</text><text x="12.024" y="1.67" class="f">get-call</text></svg><svg x="2268"><use xlink:href="#a"/><use xlink:href="#b" x="20.996"/><text y="1.67" class="f">~</text><text x="2.004" y="1.67" class="f">$</text><text x="4.008" y="1.67" class="f">aws</text><text x="8.016" y="1.67" class="f">sts</text><text x="12.024" y="1.67" class="f">get-calle</text></svg><svg x="2394"><use xlink:href="#a"/><use xlink:href="#b" x="21.996"/><text y="1.67" class="f">~</text><text x="2.004" y="1.67" class="f">$</text><text x="4.008" y="1.67" class="f">aws</text><text x="8.016" y="1.67" class="f">sts</text><text x="12.024" y="1.67" class="f">get-caller</text></svg><svg x="2520"><use xlink:href="#a"/><use xlink:href="#b" x="22.996"/><text y="1.67" class="f">~</text><text x="2.004" y="1.67" class="f">$</text><text x="4.008" y="1.67" class="f">aws</text><text x="8.016" y="1.67" class="f">sts</text><text x="12.024" y="1.67" class="f">get-caller-</text></svg><svg x="2646"><use xlink:href="#a"/><use xlink:href="#b" x="23.996"/><text y="1.67" class="f">~</text><text x="2.004" y="1.67" class="f">$</text><text x="4.008" y="1.67" class="f">aws</text><text x="8.016" y="1.67" class="f">sts</text><text x="12.024" y="1.67" class="f">get-caller-i</text></svg><svg x="2772"><use xlink:href="#a"/><use xlink:href="#b" x="24.996"/><text y="1.67" class="f">~</text><text x="2.004" y="1.67" class="f">$</text><text x="4.008" y="1.67" class="f">aws</text><text x="8.016" y="1.67" class="f">sts</text><text x="12.024" y="1.67" class="f">get-caller-id</text></svg><svg x="2898"><use xlink:href="#a"/><use xlink:href="#b" x="25.996"/><text y="1.67" class="f">~</text><text x="2.004" y="1.67" class="f">$</text><text x="4.008" y="1.67" class="f">aws</text><text x="8.016" y="1.67" class="f">sts</text><text x="12.024" y="1.67" class="f">get-caller-ide</text></svg><svg x="3024"><use xlink:href="#a"/><use xlink:href="#b" x="26.996"/><text y="1.67" class="f">~</text><text x="2.004" y="1.67" class="f">$</text><text x="4.008" y="1.67" class="f">aws</text><text x="8.016" y="1.67" class="f">sts</text><text x="12.024" y="1.67" class="f">get-caller-iden</text></svg><svg x="3150"><use xlink:href="#a"/><use xlink:href="#b" x="27.996"/><text y="1.67" class="f">~</text><text x="2.004" y="1.67" class="f">$</text><text x="4.008" y="1.67" class="f">aws</text><text x="8.016" y="1.67" class="f">sts</text><text x="12.024" y="1.67" class="f">get-caller-ident</text></svg><svg x="3276"><use xlink:href="#a"/><use xlink:href="#b" x="28.996"/><text y="1.67" class="f">~</text><text x="2.004" y="1.67" class="f">$</text><text x="4.008" y="1.67" class="f">aws</text><text x="8.016" y="1.67" class="f">sts</text><text x="12.024" y="1.67" class="f">get-caller-identi</text></svg><svg x="3402"><use xlink:href="#a"/><use xlink:href="#b" x="29.996"/><text y="1.67" class="f">~</text><text x="2.004" y="1.67" class="f">$</text><text x="4.008" y="1.67" class="f">aws</text><text x="8.016" y="1.67" class="f">sts</text><text x="12.024" y="1.67" class="f">get-caller-identit</text></svg><svg x="3528"><use xlink:href="#a"/><use xlink:href="#b" x="30.996"/><use xlink:href="#4"/></svg><svg x="3654"><use xlink:href="#a"/><use xlink:href="#b" x="-.004" y="2.146"/><use xlink:href="#4"/></svg><svg x="3780"><use xlink:href="#a"/><use xlink:href="#b" x="-.004" y="4.317"/><use xlink:href="#4"/><use xlink:href="#5" y="2.171"/></svg><svg x="3906"><use xlink:href="#a"/><use xlink:href="#b" x="3.996" y="4.317"/><use xlink:href="#4"/><use xlink:href="#5" y="2.171"/><use xlink:href="#1" y="4.342"/></svg><svg x="4032"><use xlink:href="#a"/><use xlink:href="#b" x="67.996" y="4.317"/><use xlink:href="#4"/><use xlink:href="#5" y="2.171"/><use xlink:href="#6" y="4.342"/></svg><svg x="4158"><use xlink:href="#a"/><use xlink:href="#b" x="-.004" y="6.488"/><use xlink:href="#4"/><use xlink:href="#5" y="2.171"/><use xlink:href="#6" y="4.342"/></svg><svg x="4284"><use xlink:href="#a"/><use xlink:href="#b" x="3.996" y="6.488"/><use xlink:href="#4"/><use xlink:href="#5" y="2.171"/><use xlink:href="#6" y="4.342"/><use xlink:href="#1" y="6.513"/></svg><svg x="4410"><use xlink:href="#a"/><use xlink:href="#b" x="67.996" y="6.488"/><use xlink:href="#4"/><use xlink:href="#5" y="2.171"/><use xlink:href="#6" y="4.342"/><use xlink:href="#6" y="6.513"/></svg><svg x="4536"><use xlink:href="#a"/><use xlink:href="#b" x="30.996" y="6.488"/><use xlink:href="#4"/><use xlink:href="#5" y="2.171"/><use xlink:href="#6" y="4.342"/><use xlink:href="#4" y="6.513"/></svg><svg x="4662"><use xlink:href="#a"/><use xlink:href="#b" x="-.004" y="8.659"/><use xlink:href="#4"/><use xlink:href="#5" y="2.171"/><use xlink:href="#6" y="4.342"/><use xlink:href="#4" y="6.513"/></svg><svg x="4788"><use xlink:href="#a"/><use xlink:href="#b" x="-.004" y="19.514"/><use xlink:href="#4"/><use xlink:href="#5" y="2.171"/><use xlink:href="#6" y="4.342"/><use xlink:href="#4" y="6.513"/><use xlink:href="#7" y="8.684"/><use xlink:href="#8" y="10.855"/><use xlink:href="#9" y="13.026"/><use xlink:href="#10" y="15.197"/><use xlink:href="#11" y="17.368"/></svg><svg x="4914"><use xlink:href="#a"/><use xlink:href="#b" x="3.996" y="19.514"/><use xlink:href="#4"/><use xlink:href="#5" y="2.171"/><use xlink:href="#6" y="4.342"/><use xlink:href="#4" y="6.513"/><use xlink:href="#7" y="8.684"/><use xlink:href="#8" y="10.855"/><use xlink:href="#9" y="13.026"/><use xlink:href="#10" y="15.197"/><use xlink:href="#11" y="17.368"/><use xlink:href="#1" y="19.539"/></svg><svg x="5040"><use xlink:href="#a"/><use xlink:href="#b" x="4.996" y="19.514"/><use xlink:href="#4"/><use xlink:href="#5" y="2.171"/><use xlink:href="#6" y="4.342"/><use xlink:href="#4" y="6.513"/><use xlink:href="#7" y="8.684"/><use xlink:href="#8" y="10.855"/><use xlink:href="#9" y="13.026"/><use xlink:href="#10" y="15.197"/><use xlink:href="#11" y="17.368"/><text y="21.209" class="f">~</text><text x="2.004" y="21.209" class="f">$</text><text x="4.008" y="21.209" class="f">e</text></svg><svg x="5166"><use xlink:href="#a"/><use xlink:href="#b" x="5.996" y="19.514"/><use xlink:href="#4"/><use xlink:href="#5" y="2.171"/><use xlink:href="#6" y="4.342"/><use xlink:href="#4" y="6.513"/><use xlink:href="#7" y="8.684"/><use xlink:href="#8" y="10.855"/><use xlink:href="#9" y="13.026"/><use xlink:href="#10" y="15.197"/><use xlink:href="#11" y="17.368"/><use xlink:href="#12" y="19.539"/></svg><svg x="5292"><use xlink:href="#a"/><use xlink:href="#b" x="6.996" y="19.514"/><use xlink:href="#4"/><use xlink:href="#5" y="2.171"/><use xlink:href="#6" y="4.342"/><use xlink:href="#4" y="6.513"/><use xlink:href="#7" y="8.684"/><use xlink:href="#8" y="10.855"/><use xlink:href="#9" y="13.026"/><use xlink:href="#10" y="15.197"/><use xlink:href="#11" y="17.368"/><use xlink:href="#13" y="19.539"/></svg><svg x="5418"><use xlink:href="#a"/><use xlink:href="#b" x="7.996" y="19.514"/><use xlink:href="#4"/><use xlink:href="#5" y="2.171"/><use xlink:href="#6" y="4.342"/><use xlink:href="#4" y="6.513"/><use xlink:href="#7" y="8.684"/><use xlink:href="#8" y="10.855"/><use xlink:href="#9" y="13.026"/><use xlink:href="#10" y="15.197"/><use xlink:href="#11" y="17.368"/><text y="21.209" class="f">~</text><text x="2.004" y="21.209" class="f">$</text><text x="4.008" y="21.209" class="f">exot</text></svg><svg x="5544"><use xlink:href="#a"/><use xlink:href="#b" x="6.996" y="19.514"/><use xlink:href="#4"/><use xlink:href="#5" y="2.171"/><use xlink:href="#6" y="4.342"/><use xlink:href="#4" y="6.513"/><use xlink:href="#7" y="8.684"/><use xlink:href="#8" y="10.855"/><use xlink:href="#9" y="13.026"/><use xlink:href="#10" y="15.197"/><use xlink:href="#11" y="17.368"/><use xlink:href="#13" y="19.539"/></svg><svg x="5670"><use xlink:href="#a"/><use xlink:href="#b" x="5.996" y="19.514"/><use xlink:href="#4"/><use xlink:href="#5" y="2.171"/><use xlink:href="#6" y="4.342"/><use xlink:href="#4" y="6.513"/><use xlink:href="#7" y="8.684"/><use xlink:href="#8" y="10.855"/><use xlink:href="#9" y="13.026"/><use xlink:href="#10" y="15.197"/><use xlink:href="#11" y="17.368"/><use xlink:href="#12" y="19.539"/></svg><svg x="5796"><use xlink:href="#a"/><use xlink:href="#b" x="6.996" y="19.514"/><use xlink:href="#4"/><use xlink:href="#5" y="2.171"/><use xlink:href="#6" y="4.342"/><use xlink:href="#4" y="6.513"/><use xlink:href="#7" y="8.684"/><use xlink:href="#8" y="10.855"/><use xlink:href="#9" y="13.026"/><use xlink:href="#10" y="15.197"/><use xlink:href="#11" y="17.368"/><text y="21.209" class="f">~</text><text x="2.004" y="21.209" class="f">$</text><text x="4.008" y="21.209" class="f">exi</text></svg><svg x="5922"><use xlink:href="#a"/><use xlink:href="#b" x="7.996" y="19.514"/><use xlink:href="#4"/><use xlink:href="#5" y="2.171"/><use xlink:href="#6" y="4.342"/><use xlink:href="#4" y="6.513"/><use xlink:href="#7" y="8.684"/><use xlink:href="#8" y="10.855"/><use xlink:href="#9" y="13.026"/><use xlink:href="#10" y="15.197"/><use xlink:href="#11" y="17.368"/><use xlink:href="#14" y="19.539"/></svg><svg x="6048"><use xlink:href="#a"/><use xlink:href="#b" x="-.004" y="21.685"/><use xlink:href="#4"/><use xlink:href="#5" y="2.171"/><use xlink:href="#6" y="4.342"/><use xlink:href="#4" y="6.513"/><use xlink:href="#7" y="8.684"/><use xlink:href="#8" y="10.855"/><use xlink:href="#9" y="13.026"/><use xlink:href="#10" y="15.197"/><use xlink:href="#11" y="17.368"/><use xlink:href="#14" y="19.539"/></svg><svg x="6174"><use xlink:href="#a"/><use xlink:href="#b" x="-.004" y="23.856"/><use xlink:href="#4"/><use xlink:href="#5" y="2.171"/><use xlink:href="#6" y="4.342"/><use xlink:href="#4" y="6.513"/><use xlink:href="#7" y="8.684"/><use xlink:href="#8" y="10.855"/><use xlink:href="#9" y="13.026"/><use xlink:href="#10" y="15.197"/><use xlink:href="#11" y="17.368"/><use xlink:href="#14" y="19.539"/><text y="23.38" class="f">exit</text></svg></svg></g></g></svg></svg>