<svg xmlns="http://www.w3.org/2000/svg" xmlns:xlink="http://www.w3.org/1999/xlink" width="1300" height="798.14"><rect width="1300" height="798.14" rx="5" ry="5" class="a"/><svg y="0%" x="0%"><circle cx="20" cy="20" r="6" fill="#ff5f58"/><circle cx="40" cy="20" r="6" fill="#ffbd2e"/><circle cx="60" cy="20" r="6" fill="#18c132"/></svg><svg height="738.14" viewBox="0 0 126 73.814" width="1260" x="15" xmlns="http://www.w3.org/2000/svg" xmlns:xlink="http://www.w3.org/1999/xlink" y="50"><style>@keyframes i{0%{transform:translateX(0)}1.52%{transform:translateX(-126px)}5.04%{transform:translateX(-252px)}5.37%{transform:translateX(-378px)}6.19%{transform:translateX(-504px)}6.94%{transform:translateX(-630px)}7.93%{transform:translateX(-756px)}8.34%{transform:translateX(-882px)}8.83%{transform:translateX(-1008px)}9.5%{transform:translateX(-1134px)}10.82%{transform:translateX(-1260px)}11.15%{transform:translateX(-1386px)}11.64%{transform:translateX(-1512px)}12.14%{transform:translateX(-1638px)}12.96%{transform:translateX(-1764px)}13.29%{transform:translateX(-1890px)}13.79%{transform:translateX(-2016px)}14.45%{transform:translateX(-2142px)}14.78%{transform:translateX(-2268px)}15.11%{transform:translateX(-2394px)}15.52%{transform:translateX(-2520px)}16.93%{transform:translateX(-2646px)}18.99%{transform:translateX(-2772px)}19.73%{transform:translateX(-2898px)}20.31%{transform:translateX(-3024px)}20.72%{transform:translateX(-3150px)}21.22%{transform:translateX(-3276px)}21.71%{transform:translateX(-3402px)}22.21%{transform:translateX(-3528px)}23.2%{transform:translateX(-3654px)}24.23%{transform:translateX(-3780px)}24.37%{transform:translateX(-3906px)}32.69%{transform:translateX(-4032px)}32.94%{transform:translateX(-4158px)}33.77%{transform:translateX(-4284px)}34.34%{transform:translateX(-4410px)}35.09%{transform:translateX(-4536px)}35.42%{transform:translateX(-4662px)}35.83%{transform:translateX(-4788px)}36.57%{transform:translateX(-4914px)}36.9%{transform:translateX(-5040px)}37.23%{transform:translateX(-5166px)}37.81%{transform:translateX(-5292px)}38.64%{transform:translateX(-5418px)}39.46%{transform:translateX(-5544px)}40.04%{transform:translateX(-5670px)}40.53%{transform:translateX(-5796px)}41.77%{transform:translateX(-5922px)}49.93%{transform:translateX(-6048px)}52.75%{transform:translateX(-6174px)}53.5%{transform:translateX(-6300px)}62.41%{transform:translateX(-6426px)}65.04%{transform:translateX(-6552px)}65.19%{transform:translateX(-6678px)}72.15%{transform:translateX(-6804px)}72.73%{transform:translateX(-6930px)}73.14%{transform:translateX(-7056px)}73.39%{transform:translateX(-7182px)}74.46%{transform:translateX(-7308px)}75.21%{transform:translateX(-7434px)}76.28%{transform:translateX(-7560px)}77.11%{transform:translateX(-7686px)}77.35%{transform:translateX(-7812px)}78.26%{transform:translateX(-7938px)}79.27%{transform:translateX(-8064px)}81.32%{transform:translateX(-8190px)}81.98%{transform:translateX(-8316px)}82.49%{transform:translateX(-8442px)}84.7%{transform:translateX(-8568px)}84.71%{transform:translateX(-8820px)}97.61%{transform:translateX(-8946px)}98.27%{transform:translateX(-9072px)}98.76%{transform:translateX(-9198px)}99.42%{transform:translateX(-9324px)}to{transform:translateX(-9576px)}}.a{fill:#282d35}.f{fill:#b9c0cb;white-space:pre}</style><g font-family="Monaco,Consolas,Menlo,'Bitstream Vera Sans Mono','Powerline Symbols',monospace" font-size="1.67"><defs><symbol id="1"><text y="1.67" class="f">~</text><text x="2.004" y="1.67" class="f">$</text></symbol><symbol id="2"><text y="1.67" class="f">~</text><text x="2.004" y="1.67" class="f">$</text><text x="4.008" y="1.67" class="f">aws</text></symbol><symbol id="3"><text y="1.67" class="f">~</text><text x="2.004" y="1.67" class="f">$</text><text x="4.008" y="1.67" class="f">aws</text><text x="8.016" y="1.67" class="f">sts</text></symbol><symbol id="4"><text y="1.67" class="f">~</text><text x="2.004" y="1.67" class="f">$</text><text x="4.008" y="1.67" class="f">aws</text><text x="8.016" y="1.67" class="f">sts</text><text x="12.024" y="1.67" class="f">get-caller-identity</text></symbol><symbol id="5"><text y="1.67" class="f">Unable</text><text x="7.014" y="1.67" class="f">to</text><text x="10.02" y="1.67" class="f">locate</text><text x="17.034" y="1.67" class="f">credentials.</text><text x="30.06" y="1.67" class="f">You</text><text x="34.068" y="1.67" class="f">can</text><text x="38.076" y="1.67" class="f">configure</text><text x="48.096" y="1.67" class="f">credentials</text><text x="60.12" y="1.67" class="f">by</text><text x="63.126" y="1.67" class="f">running</text><text x="71.142" y="1.67" class="f">&quot;aws</text><text x="76.152" y="1.67" class="f">configure&quot;.</text></symbol><symbol id="6"><text y="1.67" class="f">~</text><text x="2.004" y="1.67" class="f">$</text><text x="4.008" y="1.67" class="f">weep</text></symbol><symbol id="7"><text y="1.67" class="f">~</text><text x="2.004" y="1.67" class="f">$</text><text x="4.008" y="1.67" class="f">weep</text><text x="9.018" y="1.67" class="f">file</text></symbol><symbol id="8"><text y="1.67" class="f">~</text><text x="2.004" y="1.67" class="f">$</text><text x="4.008" y="1.67" class="f">weep</text><text x="9.018" y="1.67" class="f">file</text><text x="14.028" y="1.67" class="f">nullr</text></symbol><symbol id="9"><text y="1.67" class="f">{</text></symbol><symbol id="10"><text x="4.008" y="1.67" class="f">&quot;UserId&quot;:</text><text x="14.028" y="1.67" class="f">&quot;AROA4JEFLERSLZJ7TNLKP:ccastrapel@example.com&quot;,</text></symbol><symbol id="11"><text x="4.008" y="1.67" class="f">&quot;Account&quot;:</text><text x="15.03" y="1.67" class="f">&quot;844240725092&quot;,</text></symbol><symbol id="12"><text x="4.008" y="1.67" class="f">&quot;Arn&quot;:</text><text x="11.022" y="1.67" class="f">&quot;arn:aws:sts::844240725092:assumed-role/NullRole/ccastrapel@example.com&quot;</text></symbol><symbol id="13"><text y="1.67" class="f">}</text></symbol><symbol id="14"><text y="1.67" class="f">~</text><text x="2.004" y="1.67" class="f">$</text><text x="4.008" y="1.67" class="f">cat</text></symbol><symbol id="15"><text y="1.67" class="f">~</text><text x="2.004" y="1.67" class="f">$</text><text x="4.008" y="1.67" class="f">cat</text><text x="8.016" y="1.67" class="f">~/.aws/credentials</text></symbol><symbol id="16"><text y="1.67" class="f">[default]</text></symbol><symbol id="17"><text y="1.67" class="f">aws_access_key_id</text><text x="18.036" y="1.67" class="f">=</text><text x="20.04" y="1.67" class="f">ASIA4JEFLERSMWODT7D3</text></symbol><symbol id="18"><text y="1.67" class="f">aws_secret_access_key</text><text x="22.044" y="1.67" class="f">=</text><text x="24.048" y="1.67" class="f">60/jWkAXEj4HfY/T9kOzUtstxBPORu3GTtObDJ7ea</text></symbol><symbol id="19"><text y="1.67" class="f">aws_session_token</text><text x="18.036" y="1.67" class="f">=</text><text x="20.04" y="1.67" class="f">FwoGZXIvYXdzEHUaDKNq5yjhRHkLYFSgCCK4AbiJL89BJPiH89tDYs7ytC7dES9oeS6UlTYlTXuoc18HKvFiedx5TXgxo86NJ7xQQsqDgl</text></symbol><symbol id="20"><text y="1.67" class="f">NV4BXULj+HecuZr8gSOXG07ribhKANIqjLbnHltalT1y4/HNZXdECLJXUbLmjfNpzTXekcXr1saUGrgPw9kv4l3Sfk%DtN+ZFbwigZgcUzjgVPkAM049wrnrvDjYfx</text></symbol><symbol id="21"><text y="1.67" class="f">woJCiXmpyrHH6xztX/vzNGRTOvk5xTtctITuHtnT23EnY77lJQo2M31/QUyLdr4JOgxZMjOWYsaEWUeoma2n6QYa6iQmmaEB//wfdd2w0Doj5yuNsz2aSmDBA==</text></symbol><symbol id="22"><text y="1.67" class="f">~</text><text x="2.004" y="1.67" class="f">$</text><text x="4.008" y="1.67" class="f">exit</text></symbol><symbol id="a"><path fill="transparent" d="M0 0h126v34H0z"/></symbol><symbol id="b"><path fill="#6f7683" d="M0 0h1.102v2.171H0z"/></symbol></defs><path class="a" d="M0 0h126v73.814H0z"/><g style="animation-duration:19.384324000000003s;animation-iteration-count:infinite;animation-name:i;animation-timing-function:steps(1,end)"><svg width="9702"><svg><use xlink:href="#a"/><use xlink:href="#b" x="-.004"/></svg><svg x="126"><use xlink:href="#a"/><use xlink:href="#b" x="3.996"/><use xlink:href="#1"/></svg><svg x="252"><use xlink:href="#a"/><use xlink:href="#b" x="4.996"/><text y="1.67" class="f">~</text><text x="2.004" y="1.67" class="f">$</text><text x="4.008" y="1.67" class="f">a</text></svg><svg x="378"><use xlink:href="#a"/><use xlink:href="#b" x="5.996"/><text y="1.67" class="f">~</text><text x="2.004" y="1.67" class="f">$</text><text x="4.008" y="1.67" class="f">aw</text></svg><svg x="504"><use xlink:href="#a"/><use xlink:href="#b" x="6.996"/><use xlink:href="#2"/></svg><svg x="630"><use xlink:href="#a"/><use xlink:href="#b" x="7.996"/><use xlink:href="#2"/></svg><svg x="756"><use xlink:href="#a"/><use xlink:href="#b" x="8.996"/><text y="1.67" class="f">~</text><text x="2.004" y="1.67" class="f">$</text><text x="4.008" y="1.67" class="f">aws</text><text x="8.016" y="1.67" class="f">s</text></svg><svg x="882"><use xlink:href="#a"/><use xlink:href="#b" x="9.996"/><text y="1.67" class="f">~</text><text x="2.004" y="1.67" class="f">$</text><text x="4.008" y="1.67" class="f">aws</text><text x="8.016" y="1.67" class="f">st</text></svg><svg x="1008"><use xlink:href="#a"/><use xlink:href="#b" x="10.996"/><use xlink:href="#3"/></svg><svg x="1134"><use xlink:href="#a"/><use xlink:href="#b" x="11.996"/><use xlink:href="#3"/></svg><svg x="1260"><use xlink:href="#a"/><use xlink:href="#b" x="12.996"/><text y="1.67" class="f">~</text><text x="2.004" y="1.67" class="f">$</text><text x="4.008" y="1.67" class="f">aws</text><text x="8.016" y="1.67" class="f">sts</text><text x="12.024" y="1.67" class="f">g</text></svg><svg x="1386"><use xlink:href="#a"/><use xlink:href="#b" x="13.996"/><text y="1.67" class="f">~</text><text x="2.004" y="1.67" class="f">$</text><text x="4.008" y="1.67" class="f">aws</text><text x="8.016" y="1.67" class="f">sts</text><text x="12.024" y="1.67" class="f">ge</text></svg><svg x="1512"><use xlink:href="#a"/><use xlink:href="#b" x="14.996"/><text y="1.67" class="f">~</text><text x="2.004" y="1.67" class="f">$</text><text x="4.008" y="1.67" class="f">aws</text><text x="8.016" y="1.67" class="f">sts</text><text x="12.024" y="1.67" class="f">get</text></svg><svg x="1638"><use xlink:href="#a"/><use xlink:href="#b" x="15.996"/><text y="1.67" class="f">~</text><text x="2.004" y="1.67" class="f">$</text><text x="4.008" y="1.67" class="f">aws</text><text x="8.016" y="1.67" class="f">sts</text><text x="12.024" y="1.67" class="f">get-</text></svg><svg x="1764"><use xlink:href="#a"/><use xlink:href="#b" x="16.996"/><text y="1.67" class="f">~</text><text x="2.004" y="1.67" class="f">$</text><text x="4.008" y="1.67" class="f">aws</text><text x="8.016" y="1.67" class="f">sts</text><text x="12.024" y="1.67" class="f">get-c</text></svg><svg x="1890"><use xlink:href="#a"/><use xlink:href="#b" x="17.996"/><text y="1.67" class="f">~</text><text x="2.004" y="1.67" class="f">$</text><text x="4.008" y="1.67" class="f">aws</text><text x="8.016" y="1.67" class="f">sts</text><text x="12.024" y="1.67" class="f">get-ca</text></svg><svg x="2016"><use xlink:href="#a"/><use xlink:href="#b" x="18.996"/><text y="1.67" class="f">~</text><text x="2.004" y="1.67" class="f">$</text><text x="4.008" y="1.67" class="f">aws</text><text x="8.016" y="1.67" class="f">sts</text><text x="12.024" y="1.67" class="f">get-cal</text></svg><svg x="2142"><use xlink:href="#a"/><use xlink:href="#b" x="19.996"/><text y="1.67" class="f">~</text><text x="2.004" y="1.67" class="f">$</text><text x="4.008" y="1.67" class="f">aws</text><text x="8.016" y="1.67" class="f">sts</text><text x="12.024" y="1.67" class="f">get-call</text></svg><svg x="2268"><use xlink:href="#a"/><use xlink:href="#b" x="20.996"/><text y="1.67" class="f">~</text><text x="2.004" y="1.67" class="f">$</text><text x="4.008" y="1.67" class="f">aws</text><text x="8.016" y="1.67" class="f">sts</text><text x="12.024" y="1.67" class="f">get-calle</text></svg><svg x="2394"><use xlink:href="#a"/><use xlink:href="#b" x="21.996"/><text y="1.67" class="f">~</text><text x="2.004" y="1.67" class="f">$</text><text x="4.008" y="1.67" class="f">aws</text><text x="8.016" y="1.67" class="f">sts</text><text x="12.024" y="1.67" class="f">get-caller</text></svg><svg x="2520"><use xlink:href="#a"/><use xlink:href="#b" x="22.996"/><text y="1.67" class="f">~</text><text x="2.004" y="1.67" class="f">$</text><text x="4.008" y="1.67" class="f">aws</text><text x="8.016" y="1.67" class="f">sts</text><text x="12.024" y="1.67" class="f">get-caller-</text></svg><svg x="2646"><use xlink:href="#a"/><use xlink:href="#b" x="23.996"/><text y="1.67" class="f">~</text><text x="2.004" y="1.67" class="f">$</text><text x="4.008" y="1.67" class="f">aws</text><text x="8.016" y="1.67" class="f">sts</text><text x="12.024" y="1.67" class="f">get-caller-i</text></svg><svg x="2772"><use xlink:href="#a"/><use xlink:href="#b" x="24.996"/><text y="1.67" class="f">~</text><text x="2.004" y="1.67" class="f">$</text><text x="4.008" y="1.67" class="f">aws</text><text x="8.016" y="1.67" class="f">sts</text><text x="12.024" y="1.67" class="f">get-caller-id</text></svg><svg x="2898"><use xlink:href="#a"/><use xlink:href="#b" x="25.996"/><text y="1.67" class="f">~</text><text x="2.004" y="1.67" class="f">$</text><text x="4.008" y="1.67" class="f">aws</text><text x="8.016" y="1.67" class="f">sts</text><text x="12.024" y="1.67" class="f">get-caller-ide</text></svg><svg x="3024"><use xlink:href="#a"/><use xlink:href="#b" x="26.996"/><text y="1.67" class="f">~</text><text x="2.004" y="1.67" class="f">$</text><text x="4.008" y="1.67" class="f">aws</text><text x="8.016" y="1.67" class="f">sts</text><text x="12.024" y="1.67" class="f">get-caller-iden</text></svg><svg x="3150"><use xlink:href="#a"/><use xlink:href="#b" x="27.996"/><text y="1.67" class="f">~</text><text x="2.004" y="1.67" class="f">$</text><text x="4.008" y="1.67" class="f">aws</text><text x="8.016" y="1.67" class="f">sts</text><text x="12.024" y="1.67" class="f">get-caller-ident</text></svg><svg x="3276"><use xlink:href="#a"/><use xlink:href="#b" x="28.996"/><text y="1.67" class="f">~</text><text x="2.004" y="1.67" class="f">$</text><text x="4.008" y="1.67" class="f">aws</text><text x="8.016" y="1.67" class="f">sts</text><text x="12.024" y="1.67" class="f">get-caller-identi</text></svg><svg x="3402"><use xlink:href="#a"/><use xlink:href="#b" x="29.996"/><text y="1.67" class="f">~</text><text x="2.004" y="1.67" class="f">$</text><text x="4.008" y="1.67" class="f">aws</text><text x="8.016" y="1.67" class="f">sts</text><text x="12.024" y="1.67" class="f">get-caller-identit</text></svg><svg x="3528"><use xlink:href="#a"/><use xlink:href="#b" x="30.996"/><use xlink:href="#4"/></svg><svg x="3654"><use xlink:href="#a"/><use xlink:href="#b" x="-.004" y="2.146"/><use xlink:href="#4"/></svg><svg x="3780"><use xlink:href="#a"/><use xlink:href="#b" x="-.004" y="4.317"/><use xlink:href="#4"/><use xlink:href="#5" y="2.171"/></svg><svg x="3906"><use xlink:href="#a"/><use xlink:href="#b" x="3.996" y="4.317"/><use xlink:href="#4"/><use xlink:href="#5" y="2.171"/><use xlink:href="#1" y="4.342"/></svg><svg x="4032"><use xlink:href="#a"/><use xlink:href="#b" x="4.996" y="4.317"/><use xlink:href="#4"/><use xlink:href="#5" y="2.171"/><text y="6.012" class="f">~</text><text x="2.004" y="6.012" class="f">$</text><text x="4.008" y="6.012" class="f">w</text></svg><svg x="4158"><use xlink:href="#a"/><use xlink:href="#b" x="5.996" y="4.317"/><use xlink:href="#4"/><use xlink:href="#5" y="2.171"/><text y="6.012" class="f">~</text><text x="2.004" y="6.012" class="f">$</text><text x="4.008" y="6.012" class="f">we</text></svg><svg x="4284"><use xlink:href="#a"/><use xlink:href="#b" x="6.996" y="4.317"/><use xlink:href="#4"/><use xlink:href="#5" y="2.171"/><text y="6.012" class="f">~</text><text x="2.004" y="6.012" class="f">$</text><text x="4.008" y="6.012" class="f">wee</text></svg><svg x="4410"><use xlink:href="#a"/><use xlink:href="#b" x="7.996" y="4.317"/><use xlink:href="#4"/><use xlink:href="#5" y="2.171"/><use xlink:href="#6" y="4.342"/></svg><svg x="4536"><use xlink:href="#a"/><use xlink:href="#b" x="8.996" y="4.317"/><use xlink:href="#4"/><use xlink:href="#5" y="2.171"/><use xlink:href="#6" y="4.342"/></svg><svg x="4662"><use xlink:href="#a"/><use xlink:href="#b" x="9.996" y="4.317"/><use xlink:href="#4"/><use xlink:href="#5" y="2.171"/><text y="6.012" class="f">~</text><text x="2.004" y="6.012" class="f">$</text><text x="4.008" y="6.012" class="f">weep</text><text x="9.018" y="6.012" class="f">f</text></svg><svg x="4788"><use xlink:href="#a"/><use xlink:href="#b" x="10.996" y="4.317"/><use xlink:href="#4"/><use xlink:href="#5" y="2.171"/><text y="6.012" class="f">~</text><text x="2.004" y="6.012" class="f">$</text><text x="4.008" y="6.012" class="f">weep</text><text x="9.018" y="6.012" class="f">fi</text></svg><svg x="4914"><use xlink:href="#a"/><use xlink:href="#b" x="11.996" y="4.317"/><use xlink:href="#4"/><use xlink:href="#5" y="2.171"/><text y="6.012" class="f">~</text><text x="2.004" y="6.012" class="f">$</text><text x="4.008" y="6.012" class="f">weep</text><text x="9.018" y="6.012" class="f">fil</text></svg><svg x="5040"><use xlink:href="#a"/><use xlink:href="#b" x="12.996" y="4.317"/><use xlink:href="#4"/><use xlink:href="#5" y="2.171"/><use xlink:href="#7" y="4.342"/></svg><svg x="5166"><use xlink:href="#a"/><use xlink:href="#b" x="13.996" y="4.317"/><use xlink:href="#4"/><use xlink:href="#5" y="2.171"/><use xlink:href="#7" y="4.342"/></svg><svg x="5292"><use xlink:href="#a"/><use xlink:href="#b" x="14.996" y="4.317"/><use xlink:href="#4"/><use xlink:href="#5" y="2.171"/><text y="6.012" class="f">~</text><text x="2.004" y="6.012" class="f">$</text><text x="4.008" y="6.012" class="f">weep</text><text x="9.018" y="6.012" class="f">file</text><text x="14.028" y="6.012" class="f">n</text></svg><svg x="5418"><use xlink:href="#a"/><use xlink:href="#b" x="15.996" y="4.317"/><use xlink:href="#4"/><use xlink:href="#5" y="2.171"/><text y="6.012" class="f">~</text><text x="2.004" y="6.012" class="f">$</text><text x="4.008" y="6.012" class="f">weep</text><text x="9.018" y="6.012" class="f">file</text><text x="14.028" y="6.012" class="f">nu</text></svg><svg x="5544"><use xlink:href="#a"/><use xlink:href="#b" x="16.996" y="4.317"/><use xlink:href="#4"/><use xlink:href="#5" y="2.171"/><text y="6.012" class="f">~</text><text x="2.004" y="6.012" class="f">$</text><text x="4.008" y="6.012" class="f">weep</text><text x="9.018" y="6.012" class="f">file</text><text x="14.028" y="6.012" class="f">nul</text></svg><svg x="5670"><use xlink:href="#a"/><use xlink:href="#b" x="17.996" y="4.317"/><use xlink:href="#4"/><use xlink:href="#5" y="2.171"/><text y="6.012" class="f">~</text><text x="2.004" y="6.012" class="f">$</text><text x="4.008" y="6.012" class="f">weep</text><text x="9.018" y="6.012" class="f">file</text><text x="14.028" y="6.012" class="f">null</text></svg><svg x="5796"><use xlink:href="#a"/><use xlink:href="#b" x="18.996" y="4.317"/><use xlink:href="#4"/><use xlink:href="#5" y="2.171"/><use xlink:href="#8" y="4.342"/></svg><svg x="5922"><use xlink:href="#a"/><use xlink:href="#b" x="-.004" y="6.488"/><use xlink:href="#4"/><use xlink:href="#5" y="2.171"/><use xlink:href="#8" y="4.342"/></svg><svg x="6048"><use xlink:href="#a"/><use xlink:href="#b" x="3.996" y="6.488"/><use xlink:href="#4"/><use xlink:href="#5" y="2.171"/><use xlink:href="#8" y="4.342"/><use xlink:href="#1" y="6.513"/></svg><svg x="6174"><use xlink:href="#a"/><use xlink:href="#b" x="18.996" y="6.488"/><use xlink:href="#4"/><use xlink:href="#5" y="2.171"/><use xlink:href="#8" y="4.342"/><use xlink:href="#8" y="6.513"/></svg><svg x="6300"><use xlink:href="#a"/><use xlink:href="#b" x="30.996" y="6.488"/><use xlink:href="#4"/><use xlink:href="#5" y="2.171"/><use xlink:href="#8" y="4.342"/><use xlink:href="#4" y="6.513"/></svg><svg x="6426"><use xlink:href="#a"/><use xlink:href="#b" x="-.004" y="8.659"/><use xlink:href="#4"/><use xlink:href="#5" y="2.171"/><use xlink:href="#8" y="4.342"/><use xlink:href="#4" y="6.513"/></svg><svg x="6552"><use xlink:href="#a"/><use xlink:href="#b" x="-.004" y="19.514"/><use xlink:href="#4"/><use xlink:href="#5" y="2.171"/><use xlink:href="#8" y="4.342"/><use xlink:href="#4" y="6.513"/><use xlink:href="#9" y="8.684"/><use xlink:href="#10" y="10.855"/><use xlink:href="#11" y="13.026"/><use xlink:href="#12" y="15.197"/><use xlink:href="#13" y="17.368"/></svg><svg x="6678"><use xlink:href="#a"/><use xlink:href="#b" x="3.996" y="19.514"/><use xlink:href="#4"/><use xlink:href="#5" y="2.171"/><use xlink:href="#8" y="4.342"/><use xlink:href="#4" y="6.513"/><use xlink:href="#9" y="8.684"/><use xlink:href="#10" y="10.855"/><use xlink:href="#11" y="13.026"/><use xlink:href="#12" y="15.197"/><use xlink:href="#13" y="17.368"/><use xlink:href="#1" y="19.539"/></svg><svg x="6804"><use xlink:href="#a"/><use xlink:href="#b" x="4.996" y="19.514"/><use xlink:href="#4"/><use xlink:href="#5" y="2.171"/><use xlink:href="#8" y="4.342"/><use xlink:href="#4" y="6.513"/><use xlink:href="#9" y="8.684"/><use xlink:href="#10" y="10.855"/><use xlink:href="#11" y="13.026"/><use xlink:href="#12" y="15.197"/><use xlink:href="#13" y="17.368"/><text y="21.209" class="f">~</text><text x="2.004" y="21.209" class="f">$</text><text x="4.008" y="21.209" class="f">c</text></svg><svg x="6930"><use xlink:href="#a"/><use xlink:href="#b" x="5.996" y="19.514"/><use xlink:href="#4"/><use xlink:href="#5" y="2.171"/><use xlink:href="#8" y="4.342"/><use xlink:href="#4" y="6.513"/><use xlink:href="#9" y="8.684"/><use xlink:href="#10" y="10.855"/><use xlink:href="#11" y="13.026"/><use xlink:href="#12" y="15.197"/><use xlink:href="#13" y="17.368"/><text y="21.209" class="f">~</text><text x="2.004" y="21.209" class="f">$</text><text x="4.008" y="21.209" class="f">ca</text></svg><svg x="7056"><use xlink:href="#a"/><use xlink:href="#b" x="6.996" y="19.514"/><use xlink:href="#4"/><use xlink:href="#5" y="2.171"/><use xlink:href="#8" y="4.342"/><use xlink:href="#4" y="6.513"/><use xlink:href="#9" y="8.684"/><use xlink:href="#10" y="10.855"/><use xlink:href="#11" y="13.026"/><use xlink:href="#12" y="15.197"/><use xlink:href="#13" y="17.368"/><use xlink:href="#14" y="19.539"/></svg><svg x="7182"><use xlink:href="#a"/><use xlink:href="#b" x="7.996" y="19.514"/><use xlink:href="#4"/><use xlink:href="#5" y="2.171"/><use xlink:href="#8" y="4.342"/><use xlink:href="#4" y="6.513"/><use xlink:href="#9" y="8.684"/><use xlink:href="#10" y="10.855"/><use xlink:href="#11" y="13.026"/><use xlink:href="#12" y="15.197"/><use xlink:href="#13" y="17.368"/><use xlink:href="#14" y="19.539"/></svg><svg x="7308"><use xlink:href="#a"/><use xlink:href="#b" x="8.996" y="19.514"/><use xlink:href="#4"/><use xlink:href="#5" y="2.171"/><use xlink:href="#8" y="4.342"/><use xlink:href="#4" y="6.513"/><use xlink:href="#9" y="8.684"/><use xlink:href="#10" y="10.855"/><use xlink:href="#11" y="13.026"/><use xlink:href="#12" y="15.197"/><use xlink:href="#13" y="17.368"/><text y="21.209" class="f">~</text><text x="2.004" y="21.209" class="f">$</text><text x="4.008" y="21.209" class="f">cat</text><text x="8.016" y="21.209" class="f">~</text></svg><svg x="7434"><use xlink:href="#a"/><use xlink:href="#b" x="9.996" y="19.514"/><use xlink:href="#4"/><use xlink:href="#5" y="2.171"/><use xlink:href="#8" y="4.342"/><use xlink:href="#4" y="6.513"/><use xlink:href="#9" y="8.684"/><use xlink:href="#10" y="10.855"/><use xlink:href="#11" y="13.026"/><use xlink:href="#12" y="15.197"/><use xlink:href="#13" y="17.368"/><text y="21.209" class="f">~</text><text x="2.004" y="21.209" class="f">$</text><text x="4.008" y="21.209" class="f">cat</text><text x="8.016" y="21.209" class="f">~/</text></svg><svg x="7560"><use xlink:href="#a"/><use xlink:href="#b" x="10.996" y="19.514"/><use xlink:href="#4"/><use xlink:href="#5" y="2.171"/><use xlink:href="#8" y="4.342"/><use xlink:href="#4" y="6.513"/><use xlink:href="#9" y="8.684"/><use xlink:href="#10" y="10.855"/><use xlink:href="#11" y="13.026"/><use xlink:href="#12" y="15.197"/><use xlink:href="#13" y="17.368"/><text y="21.209" class="f">~</text><text x="2.004" y="21.209" class="f">$</text><text x="4.008" y="21.209" class="f">cat</text><text x="8.016" y="21.209" class="f">~/.</text></svg><svg x="7686"><use xlink:href="#a"/><use xlink:href="#b" x="11.996" y="19.514"/><use xlink:href="#4"/><use xlink:href="#5" y="2.171"/><use xlink:href="#8" y="4.342"/><use xlink:href="#4" y="6.513"/><use xlink:href="#9" y="8.684"/><use xlink:href="#10" y="10.855"/><use xlink:href="#11" y="13.026"/><use xlink:href="#12" y="15.197"/><use xlink:href="#13" y="17.368"/><text y="21.209" class="f">~</text><text x="2.004" y="21.209" class="f">$</text><text x="4.008" y="21.209" class="f">cat</text><text x="8.016" y="21.209" class="f">~/.a</text></svg><svg x="7812"><use xlink:href="#a"/><use xlink:href="#b" x="12.996" y="19.514"/><use xlink:href="#4"/><use xlink:href="#5" y="2.171"/><use xlink:href="#8" y="4.342"/><use xlink:href="#4" y="6.513"/><use xlink:href="#9" y="8.684"/><use xlink:href="#10" y="10.855"/><use xlink:href="#11" y="13.026"/><use xlink:href="#12" y="15.197"/><use xlink:href="#13" y="17.368"/><text y="21.209" class="f">~</text><text x="2.004" y="21.209" class="f">$</text><text x="4.008" y="21.209" class="f">cat</text><text x="8.016" y="21.209" class="f">~/.aw</text></svg><svg x="7938"><use xlink:href="#a"/><use xlink:href="#b" x="13.996" y="19.514"/><use xlink:href="#4"/><use xlink:href="#5" y="2.171"/><use xlink:href="#8" y="4.342"/><use xlink:href="#4" y="6.513"/><use xlink:href="#9" y="8.684"/><use xlink:href="#10" y="10.855"/><use xlink:href="#11" y="13.026"/><use xlink:href="#12" y="15.197"/><use xlink:href="#13" y="17.368"/><text y="21.209" class="f">~</text><text x="2.004" y="21.209" class="f">$</text><text x="4.008" y="21.209" class="f">cat</text><text x="8.016" y="21.209" class="f">~/.aws</text></svg><svg x="8064"><use xlink:href="#a"/><use xlink:href="#b" x="14.996" y="19.514"/><use xlink:href="#4"/><use xlink:href="#5" y="2.171"/><use xlink:href="#8" y="4.342"/><use xlink:href="#4" y="6.513"/><use xlink:href="#9" y="8.684"/><use xlink:href="#10" y="10.855"/><use xlink:href="#11" y="13.026"/><use xlink:href="#12" y="15.197"/><use xlink:href="#13" y="17.368"/><text y="21.209" class="f">~</text><text x="2.004" y="21.209" class="f">$</text><text x="4.008" y="21.209" class="f">cat</text><text x="8.016" y="21.209" class="f">~/.aws/</text></svg><svg x="8190"><use xlink:href="#a"/><use xlink:href="#b" x="15.996" y="19.514"/><use xlink:href="#4"/><use xlink:href="#5" y="2.171"/><use xlink:href="#8" y="4.342"/><use xlink:href="#4" y="6.513"/><use xlink:href="#9" y="8.684"/><use xlink:href="#10" y="10.855"/><use xlink:href="#11" y="13.026"/><use xlink:href="#12" y="15.197"/><use xlink:href="#13" y="17.368"/><text y="21.209" class="f">~</text><text x="2.004" y="21.209" class="f">$</text><text x="4.008" y="21.209" class="f">cat</text><text x="8.016" y="21.209" class="f">~/.aws/c</text></svg><svg x="8316"><use xlink:href="#a"/><use xlink:href="#b" x="16.996" y="19.514"/><use xlink:href="#4"/><use xlink:href="#5" y="2.171"/><use xlink:href="#8" y="4.342"/><use xlink:href="#4" y="6.513"/><use xlink:href="#9" y="8.684"/><use xlink:href="#10" y="10.855"/><use xlink:href="#11" y="13.026"/><use xlink:href="#12" y="15.197"/><use xlink:href="#13" y="17.368"/><text y="21.209" class="f">~</text><text x="2.004" y="21.209" class="f">$</text><text x="4.008" y="21.209" class="f">cat</text><text x="8.016" y="21.209" class="f">~/.aws/cr</text></svg><svg x="8442"><use xlink:href="#a"/><use xlink:href="#b" x="26.996" y="19.514"/><use xlink:href="#4"/><use xlink:href="#5" y="2.171"/><use xlink:href="#8" y="4.342"/><use xlink:href="#4" y="6.513"/><use xlink:href="#9" y="8.684"/><use xlink:href="#10" y="10.855"/><use xlink:href="#11" y="13.026"/><use xlink:href="#12" y="15.197"/><use xlink:href="#13" y="17.368"/><use xlink:href="#15" y="19.539"/></svg><svg x="8568"><use xlink:href="#a"/><use xlink:href="#b" x="-.004" y="21.685"/><use xlink:href="#4"/><use xlink:href="#5" y="2.171"/><use xlink:href="#8" y="4.342"/><use xlink:href="#4" y="6.513"/><use xlink:href="#9" y="8.684"/><use xlink:href="#10" y="10.855"/><use xlink:href="#11" y="13.026"/><use xlink:href="#12" y="15.197"/><use xlink:href="#13" y="17.368"/><use xlink:href="#15" y="19.539"/></svg><svg x="8694"><use xlink:href="#a"/><use xlink:href="#b" x="-.004" y="36.882"/><use xlink:href="#4"/><use xlink:href="#5" y="2.171"/><use xlink:href="#8" y="4.342"/><use xlink:href="#4" y="6.513"/><use xlink:href="#9" y="8.684"/><use xlink:href="#10" y="10.855"/><use xlink:href="#11" y="13.026"/><use xlink:href="#12" y="15.197"/><use xlink:href="#13" y="17.368"/><use xlink:href="#15" y="19.539"/><use xlink:href="#16" y="21.71"/><use xlink:href="#17" y="23.881"/><use xlink:href="#18" y="26.052"/><use xlink:href="#19" y="28.223"/><use xlink:href="#20" y="30.394"/><use xlink:href="#21" y="32.565"/></svg><svg x="8820"><use xlink:href="#a"/><use xlink:href="#b" x="3.996" y="36.882"/><use xlink:href="#4"/><use xlink:href="#5" y="2.171"/><use xlink:href="#8" y="4.342"/><use xlink:href="#4" y="6.513"/><use xlink:href="#9" y="8.684"/><use xlink:href="#10" y="10.855"/><use xlink:href="#11" y="13.026"/><use xlink:href="#12" y="15.197"/><use xlink:href="#13" y="17.368"/><use xlink:href="#15" y="19.539"/><use xlink:href="#16" y="21.71"/><use xlink:href="#17" y="23.881"/><use xlink:href="#18" y="26.052"/><use xlink:href="#19" y="28.223"/><use xlink:href="#20" y="30.394"/><use xlink:href="#21" y="32.565"/><use xlink:href="#1" y="36.907"/></svg><svg x="8946"><use xlink:href="#a"/><use xlink:href="#b" x="4.996" y="36.882"/><use xlink:href="#4"/><use xlink:href="#5" y="2.171"/><use xlink:href="#8" y="4.342"/><use xlink:href="#4" y="6.513"/><use xlink:href="#9" y="8.684"/><use xlink:href="#10" y="10.855"/><use xlink:href="#11" y="13.026"/><use xlink:href="#12" y="15.197"/><use xlink:href="#13" y="17.368"/><use xlink:href="#15" y="19.539"/><use xlink:href="#16" y="21.71"/><use xlink:href="#17" y="23.881"/><use xlink:href="#18" y="26.052"/><use xlink:href="#19" y="28.223"/><use xlink:href="#20" y="30.394"/><use xlink:href="#21" y="32.565"/><text y="38.577" class="f">~</text><text x="2.004" y="38.577" class="f">$</text><text x="4.008" y="38.577" class="f">e</text></svg><svg x="9072"><use xlink:href="#a"/><use xlink:href="#b" x="5.996" y="36.882"/><use xlink:href="#4"/><use xlink:href="#5" y="2.171"/><use xlink:href="#8" y="4.342"/><use xlink:href="#4" y="6.513"/><use xlink:href="#9" y="8.684"/><use xlink:href="#10" y="10.855"/><use xlink:href="#11" y="13.026"/><use xlink:href="#12" y="15.197"/><use xlink:href="#13" y="17.368"/><use xlink:href="#15" y="19.539"/><use xlink:href="#16" y="21.71"/><use xlink:href="#17" y="23.881"/><use xlink:href="#18" y="26.052"/><use xlink:href="#19" y="28.223"/><use xlink:href="#20" y="30.394"/><use xlink:href="#21" y="32.565"/><text y="38.577" class="f">~</text><text x="2.004" y="38.577" class="f">$</text><text x="4.008" y="38.577" class="f">ex</text></svg><svg x="9198"><use xlink:href="#a"/><use xlink:href="#b" x="6.996" y="36.882"/><use xlink:href="#4"/><use xlink:href="#5" y="2.171"/><use xlink:href="#8" y="4.342"/><use xlink:href="#4" y="6.513"/><use xlink:href="#9" y="8.684"/><use xlink:href="#10" y="10.855"/><use xlink:href="#11" y="13.026"/><use xlink:href="#12" y="15.197"/><use xlink:href="#13" y="17.368"/><use xlink:href="#15" y="19.539"/><use xlink:href="#16" y="21.71"/><use xlink:href="#17" y="23.881"/><use xlink:href="#18" y="26.052"/><use xlink:href="#19" y="28.223"/><use xlink:href="#20" y="30.394"/><use xlink:href="#21" y="32.565"/><text y="38.577" class="f">~</text><text x="2.004" y="38.577" class="f">$</text><text x="4.008" y="38.577" class="f">exi</text></svg><svg x="9324"><use xlink:href="#a"/><use xlink:href="#b" x="7.996" y="36.882"/><use xlink:href="#4"/><use xlink:href="#5" y="2.171"/><use xlink:href="#8" y="4.342"/><use xlink:href="#4" y="6.513"/><use xlink:href="#9" y="8.684"/><use xlink:href="#10" y="10.855"/><use xlink:href="#11" y="13.026"/><use xlink:href="#12" y="15.197"/><use xlink:href="#13" y="17.368"/><use xlink:href="#15" y="19.539"/><use xlink:href="#16" y="21.71"/><use xlink:href="#17" y="23.881"/><use xlink:href="#18" y="26.052"/><use xlink:href="#19" y="28.223"/><use xlink:href="#20" y="30.394"/><use xlink:href="#21" y="32.565"/><use xlink:href="#22" y="36.907"/></svg><svg x="9450"><use xlink:href="#a"/><use xlink:href="#b" x="-.004" y="39.053"/><use xlink:href="#4"/><use xlink:href="#5" y="2.171"/><use xlink:href="#8" y="4.342"/><use xlink:href="#4" y="6.513"/><use xlink:href="#9" y="8.684"/><use xlink:href="#10" y="10.855"/><use xlink:href="#11" y="13.026"/><use xlink:href="#12" y="15.197"/><use xlink:href="#13" y="17.368"/><use xlink:href="#15" y="19.539"/><use xlink:href="#16" y="21.71"/><use xlink:href="#17" y="23.881"/><use xlink:href="#18" y="26.052"/><use xlink:href="#19" y="28.223"/><use xlink:href="#20" y="30.394"/><use xlink:href="#21" y="32.565"/><use xlink:href="#22" y="36.907"/></svg><svg x="9576"><use xlink:href="#a"/><use xlink:href="#b" x="-.004" y="41.224"/><use xlink:href="#4"/><use xlink:href="#5" y="2.171"/><use xlink:href="#8" y="4.342"/><use xlink:href="#4" y="6.513"/><use xlink:href="#9" y="8.684"/><use xlink:href="#10" y="10.855"/><use xlink:href="#11" y="13.026"/><use xlink:href="#12" y="15.197"/><use xlink:href="#13" y="17.368"/><use xlink:href="#15" y="19.539"/><use xlink:href="#16" y="21.71"/><use xlink:href="#17" y="23.881"/><use xlink:href="#18" y="26.052"/><use xlink:href="#19" y="28.223"/><use xlink:href="#20" y="30.394"/><use xlink:href="#21" y="32.565"/><use xlink:href="#22" y="36.907"/><text y="40.748" class="f">exit</text></svg></svg></g></g></svg></svg>