<svg xmlns="http://www.w3.org/2000/svg" viewBox="0 0 118 52.86"><defs><style>.cls-1{fill:#e50914;}.cls-2{font-size:16px;fill:#f5f5f1;font-family:NetflixSans-Bold, Netflix Sans;font-weight:700;}.cls-3{letter-spacing:0.01em;}</style></defs><title>netflix-security-dark-bg-tight</title><g id="Layer_2" data-name="Layer 2"><g id="Layer_1-2" data-name="Layer 1"><g id="Netflix_Logo_RGB"><path class="cls-1" d="M90.2,27.93c1.61.12,3.22.26,4.82.4V0H90.2ZM12.58,17.42,6.3,0H1.71V30.78c1.61-.23,3.22-.44,4.83-.65V13.39l5.58,16.05c1.76-.21,3.52-.4,5.29-.58V0H12.58Zm9.47,11c4.44-.4,8.91-.74,13.4-1V22.66c-2.87.17-5.73.36-8.58.59v-7.2c1.87,0,4.33-.08,6.52-.05V11.25c-1.75,0-4.55,0-6.52.05V4.8h8.58V0H22.05ZM38.54,4.8h5.05V27q2.41-.09,4.83-.15V4.8h5V0H38.54Zm18,22h4.82v-11h6.54V11H61.38V4.8H70V0H56.56ZM116.29,0H111l-3.5,8.1L104.36,0H99.14l5.6,14.47-6.12,14.2c1.7.16,3.39.34,5.07.52l3.56-8.25,3.53,9.1c1.84.24,3.67.48,5.5.74h0L110,14.57ZM77.94,0H73.12V27q6.57.22,13.1.67V22.89q-4.12-.27-8.28-.47Z"/></g><text class="cls-2" transform="translate(18.02 45.6)">SECURI<tspan class="cls-3" x="60.02" y="0">T</tspan><tspan x="70.98" y="0">Y</tspan></text></g></g></svg>