<svg width="61" height="61" viewBox="0 0 61 61" fill="none" xmlns="http://www.w3.org/2000/svg">
<circle cx="30.5007" cy="30.5" r="20.5" fill="#2185D0"/>
<circle cx="30.5007" cy="30.5" r="25" stroke="#4183C4" stroke-width="3"/>
<path d="M25.28 26.57C25.38 25.8767 25.5733 25.27 25.86 24.75C26.1466 24.2233 26.5033 23.7867 26.93 23.44C27.3633 23.0867 27.8566 22.8233 28.41 22.65C28.97 22.47 29.57 22.38 30.21 22.38C30.8766 22.38 31.4766 22.4767 32.01 22.67C32.55 22.8567 33.01 23.12 33.39 23.46C33.77 23.7933 34.06 24.1867 34.26 24.64C34.4666 25.0933 34.57 25.5833 34.57 26.11C34.57 26.57 34.5166 26.9767 34.41 27.33C34.31 27.6767 34.1633 27.98 33.97 28.24C33.7766 28.5 33.5366 28.72 33.25 28.9C32.9633 29.08 32.64 29.23 32.28 29.35C33.1466 29.6233 33.7933 30.04 34.22 30.6C34.6466 31.16 34.86 31.8633 34.86 32.71C34.86 33.43 34.7266 34.0667 34.46 34.62C34.1933 35.1733 33.8333 35.64 33.38 36.02C32.9266 36.3933 32.4 36.6767 31.8 36.87C31.2066 37.0633 30.5766 37.16 29.91 37.16C29.1833 37.16 28.55 37.0767 28.01 36.91C27.47 36.7433 27 36.4967 26.6 36.17C26.2 35.8433 25.86 35.4433 25.58 34.97C25.3 34.4967 25.06 33.95 24.86 33.33L25.95 32.88C26.2366 32.76 26.5033 32.73 26.75 32.79C27.0033 32.8433 27.1866 32.9767 27.3 33.19C27.42 33.4233 27.55 33.6533 27.69 33.88C27.8366 34.1067 28.01 34.31 28.21 34.49C28.41 34.6633 28.6433 34.8067 28.91 34.92C29.1833 35.0267 29.5066 35.08 29.88 35.08C30.3 35.08 30.6666 35.0133 30.98 34.88C31.2933 34.74 31.5533 34.56 31.76 34.34C31.9733 34.12 32.13 33.8767 32.23 33.61C32.3366 33.3367 32.39 33.0633 32.39 32.79C32.39 32.4433 32.3533 32.13 32.28 31.85C32.2066 31.5633 32.0533 31.32 31.82 31.12C31.5866 30.92 31.25 30.7633 30.81 30.65C30.3766 30.5367 29.7933 30.48 29.06 30.48V28.72C29.6666 28.7133 30.17 28.6567 30.57 28.55C30.97 28.4433 31.2866 28.2967 31.52 28.11C31.76 27.9167 31.9266 27.6867 32.02 27.42C32.1133 27.1533 32.16 26.86 32.16 26.54C32.16 25.86 31.97 25.3433 31.59 24.99C31.21 24.6367 30.7033 24.46 30.07 24.46C29.7766 24.46 29.5066 24.5033 29.26 24.59C29.0133 24.67 28.79 24.7867 28.59 24.94C28.3966 25.0867 28.2333 25.26 28.1 25.46C27.9666 25.66 27.8666 25.88 27.8 26.12C27.6866 26.4267 27.5366 26.63 27.35 26.73C27.17 26.83 26.9133 26.8533 26.58 26.8L25.28 26.57Z" fill="white"/>
</svg>
