<svg width="61" height="61" viewBox="0 0 61 61" fill="none" xmlns="http://www.w3.org/2000/svg">
<circle cx="30.5007" cy="30.5" r="20.5" fill="#2185D0"/>
<path d="M34.01 34.7C34.2766 34.7 34.4866 34.7767 34.64 34.93C34.8 35.0767 34.88 35.2733 34.88 35.52V37H24.96V36.18C24.96 36.0133 24.9933 35.84 25.06 35.66C25.1333 35.4733 25.2466 35.3067 25.4 35.16L29.79 30.76C30.1566 30.3867 30.4833 30.03 30.77 29.69C31.0633 29.35 31.3066 29.0133 31.5 28.68C31.6933 28.3467 31.84 28.01 31.94 27.67C32.0466 27.3233 32.1 26.96 32.1 26.58C32.1 26.2333 32.05 25.93 31.95 25.67C31.85 25.4033 31.7066 25.18 31.52 25C31.34 24.82 31.12 24.6867 30.86 24.6C30.6066 24.5067 30.32 24.46 30 24.46C29.7066 24.46 29.4333 24.5033 29.18 24.59C28.9333 24.67 28.7133 24.7867 28.52 24.94C28.3266 25.0867 28.1633 25.26 28.03 25.46C27.8966 25.66 27.7966 25.88 27.73 26.12C27.6166 26.4267 27.47 26.63 27.29 26.73C27.11 26.83 26.85 26.8533 26.51 26.8L25.21 26.57C25.31 25.8767 25.5033 25.27 25.79 24.75C26.0766 24.2233 26.4333 23.7867 26.86 23.44C27.2933 23.0867 27.7866 22.8233 28.34 22.65C28.9 22.47 29.5 22.38 30.14 22.38C30.8066 22.38 31.4166 22.48 31.97 22.68C32.5233 22.8733 32.9966 23.15 33.39 23.51C33.7833 23.87 34.09 24.3033 34.31 24.81C34.53 25.3167 34.64 25.88 34.64 26.5C34.64 27.0333 34.56 27.5267 34.4 27.98C34.2466 28.4333 34.0366 28.8667 33.77 29.28C33.51 29.6933 33.2033 30.0933 32.85 30.48C32.4966 30.8667 32.1266 31.26 31.74 31.66L28.48 34.99C28.7933 34.8967 29.1033 34.8267 29.41 34.78C29.7233 34.7267 30.02 34.7 30.3 34.7H34.01Z" fill="white"/>
</svg>
